<mxfile host="app.diagrams.net" modified="2024-07-19T14:37:52.823Z" agent="Mozilla/5.0 (Windows NT 10.0; Win64; x64) AppleWebKit/537.36 (KHTML, like Gecko) Chrome/126.0.0.0 Safari/537.36 Edg/126.0.0.0" version="24.7.2" etag="Lo7CK3rRg8s_e_G2PUIq" type="github">
  <diagram name="Page-1" id="PdY51F8rsA9WGSerHLit">
    <mxGraphModel>
      <root>
        <mxCell id="0" />
        <mxCell id="1" parent="0" />
      </root>
    </mxGraphModel>
  </diagram>
</mxfile>
